<?xml version="1.0" encoding="utf-8" standalone="no"?>
<!DOCTYPE svg PUBLIC "-//W3C//DTD SVG 1.1//EN"
  "http://www.w3.org/Graphics/SVG/1.1/DTD/svg11.dtd">
<svg xmlns:xlink="http://www.w3.org/1999/xlink" width="217.484pt" height="184.22pt" viewBox="0 0 217.484 184.22" xmlns="http://www.w3.org/2000/svg" version="1.1">
 <metadata>
  <rdf:RDF xmlns:dc="http://purl.org/dc/elements/1.1/" xmlns:cc="http://creativecommons.org/ns#" xmlns:rdf="http://www.w3.org/1999/02/22-rdf-syntax-ns#">
   <cc:Work>
    <dc:type rdf:resource="http://purl.org/dc/dcmitype/StillImage"/>
    <dc:date>2023-07-06T11:36:20.992664</dc:date>
    <dc:format>image/svg+xml</dc:format>
    <dc:creator>
     <cc:Agent>
      <dc:title>Matplotlib v3.6.0, https://matplotlib.org/</dc:title>
     </cc:Agent>
    </dc:creator>
   </cc:Work>
  </rdf:RDF>
 </metadata>
 <defs>
  <style type="text/css">*{stroke-linejoin: round; stroke-linecap: butt}</style>
 </defs>
 <g id="figure_1">
  <g id="patch_1">
   <path d="M 0 184.22 
L 217.484 184.22 
L 217.484 0 
L 0 0 
z
" style="fill: #ffffff"/>
  </g>
  <g id="axes_1">
   <g id="patch_2">
    <path d="M 10.7 173.52 
L 210.284 173.52 
L 210.284 7.2 
L 10.7 7.2 
z
" style="fill: #ffffff"/>
   </g>
   <g id="patch_3">
    <path d="M 127.124 106.992 
L 127.124 73.728 
L 93.86 73.728 
L 93.86 106.992 
z
" clip-path="url(#p88ee129791)" style="opacity: 0.1; stroke: #000000; stroke-linejoin: miter"/>
   </g>
   <g id="line2d_1">
    <path d="M 127.124 106.992 
L 127.124 73.728 
L 93.86 73.728 
L 93.86 106.992 
L 127.124 106.992 
" clip-path="url(#p88ee129791)" style="fill: none; stroke: #000000; stroke-opacity: 0.3; stroke-width: 1.5; stroke-linecap: square"/>
   </g>
   <g id="line2d_2">
    <path d="M 10.7 173.52 
L 24.382863 170.288416 
L 36.972009 167.989336 
L 47.951742 166.669816 
L 60.759953 165.972004 
L 77.565904 165.953881 
L 91.020675 166.243662 
L 99.14689 166.18731 
L 107.226983 165.742028 
L 112.529494 165.157795 
L 118.201528 164.204357 
L 123.565881 162.922149 
L 128.481589 161.378828 
L 134.314772 159.116644 
L 139.624668 156.590761 
L 141.952407 155.332365 
L 146.717624 152.484737 
L 149.948893 150.353952 
L 153.204443 148.028771 
L 157.395712 144.568816 
L 159.948498 142.222544 
L 163.373233 138.734411 
L 165.967894 135.74518 
L 168.554764 132.448512 
L 171.130281 128.783536 
L 173.664265 124.677989 
L 193.571811 90.49768 
L 193.571811 90.49768 
" clip-path="url(#p88ee129791)" style="fill: none; stroke: #0000ff; stroke-width: 1.5; stroke-linecap: square"/>
   </g>
   <g id="line2d_3">
    <defs>
     <path id="m603e64ae1b" d="M 0 3 
C 0.795609 3 1.55874 2.683901 2.12132 2.12132 
C 2.683901 1.55874 3 0.795609 3 0 
C 3 -0.795609 2.683901 -1.55874 2.12132 -2.12132 
C 1.55874 -2.683901 0.795609 -3 0 -3 
C -0.795609 -3 -1.55874 -2.683901 -2.12132 -2.12132 
C -2.683901 -1.55874 -3 -0.795609 -3 0 
C -3 0.795609 -2.683901 1.55874 -2.12132 2.12132 
C -1.55874 2.683901 -0.795609 3 0 3 
z
" style="stroke: #000000"/>
    </defs>
    <g clip-path="url(#p88ee129791)">
     <use xlink:href="#m603e64ae1b" x="10.7" y="173.52" style="stroke: #000000"/>
    </g>
   </g>
   <g id="line2d_4">
    <path d="M 10.7 145.8 
L 17.058311 145.228754 
L 26.532007 144.86644 
L 29.453896 144.891532 
L 37.558182 145.289647 
L 44.531631 146.295834 
L 47.869535 146.943322 
L 54.38501 148.627064 
L 57.126723 149.490796 
L 64.072008 151.837799 
L 69.211446 153.692924 
L 76.748949 156.156126 
L 88.760318 159.328473 
L 92.521553 160.082447 
L 98.035686 160.958309 
L 104.398933 161.503266 
L 110.469465 161.541341 
L 116.53447 161.088491 
L 122.45549 160.117014 
L 127.322674 158.913957 
L 132.411535 157.256917 
L 137.729887 155.055823 
L 142.491454 152.631668 
L 145.744732 150.785091 
L 149.026531 148.752786 
L 152.418504 146.33607 
L 155.865368 143.600062 
L 159.395786 140.4044 
L 162.078051 137.666678 
L 164.777496 134.621277 
L 167.488555 131.1513 
L 169.289818 128.578883 
L 173.759183 121.623342 
L 192.836063 91.642319 
L 192.836063 91.642319 
" clip-path="url(#p88ee129791)" style="fill: none; stroke: #0000ff; stroke-width: 1.5; stroke-linecap: square"/>
   </g>
   <g id="line2d_5">
    <g clip-path="url(#p88ee129791)">
     <use xlink:href="#m603e64ae1b" x="10.7" y="145.8" style="stroke: #000000"/>
    </g>
   </g>
   <g id="line2d_6">
    <path d="M 10.7 118.08 
L 18.978022 118.347131 
L 25.343907 119.156983 
L 29.760708 119.901555 
L 34.37724 121.232402 
L 37.338921 122.284039 
L 41.202799 124.257433 
L 43.492405 125.625395 
L 47.668809 128.855455 
L 49.896781 130.820191 
L 60.59185 140.840806 
L 64.541447 144.154195 
L 68.470576 147.052688 
L 71.957784 149.368168 
L 76.323256 151.88881 
L 79.008074 153.226792 
L 83.272754 155.045968 
L 86.553979 156.266655 
L 91.560018 157.823234 
L 93.476423 158.301362 
L 98.358276 159.327132 
L 99.274055 159.458095 
L 99.274055 159.458095 
" clip-path="url(#p88ee129791)" style="fill: none; stroke: #0000ff; stroke-width: 1.5; stroke-linecap: square"/>
   </g>
   <g id="line2d_7">
    <g clip-path="url(#p88ee129791)">
     <use xlink:href="#m603e64ae1b" x="10.7" y="118.08" style="stroke: #000000"/>
    </g>
   </g>
   <g id="line2d_8">
    <path d="M 10.7 90.36 
L 57.205264 90.36 
L 57.205264 90.36 
" clip-path="url(#p88ee129791)" style="fill: none; stroke: #0000ff; stroke-width: 1.5; stroke-linecap: square"/>
   </g>
   <g id="line2d_9">
    <g clip-path="url(#p88ee129791)">
     <use xlink:href="#m603e64ae1b" x="10.7" y="90.36" style="stroke: #000000"/>
    </g>
   </g>
   <g id="line2d_10">
    <path d="M 10.7 62.64 
L 18.978022 62.372869 
L 25.343907 61.563017 
L 29.760708 60.818445 
L 34.37724 59.487598 
L 37.338921 58.435961 
L 41.202799 56.462567 
L 43.492405 55.094605 
L 47.668809 51.864545 
L 49.896781 49.899809 
L 60.59185 39.879194 
L 64.541447 36.565805 
L 68.470576 33.667312 
L 71.957784 31.351832 
L 76.323256 28.83119 
L 79.008074 27.493208 
L 83.272754 25.674032 
L 86.553979 24.453345 
L 91.560018 22.896766 
L 93.476423 22.418638 
L 98.358276 21.392868 
L 99.274055 21.261905 
L 99.274055 21.261905 
" clip-path="url(#p88ee129791)" style="fill: none; stroke: #0000ff; stroke-width: 1.5; stroke-linecap: square"/>
   </g>
   <g id="line2d_11">
    <g clip-path="url(#p88ee129791)">
     <use xlink:href="#m603e64ae1b" x="10.7" y="62.64" style="stroke: #000000"/>
    </g>
   </g>
   <g id="line2d_12">
    <path d="M 10.7 34.92 
L 17.058311 35.491246 
L 26.532007 35.85356 
L 29.453896 35.828468 
L 37.558182 35.430353 
L 44.531631 34.424166 
L 47.869535 33.776678 
L 54.38501 32.092936 
L 57.126723 31.229204 
L 64.072008 28.882201 
L 69.211446 27.027076 
L 76.748949 24.563874 
L 88.760318 21.391527 
L 92.521553 20.637553 
L 98.035686 19.761691 
L 104.398933 19.216734 
L 110.469465 19.178659 
L 116.53447 19.631509 
L 122.45549 20.602986 
L 127.322674 21.806043 
L 132.411535 23.463083 
L 137.729887 25.664177 
L 142.491454 28.088332 
L 145.744732 29.934909 
L 149.026531 31.967214 
L 152.418504 34.38393 
L 155.865368 37.119938 
L 159.395786 40.3156 
L 162.078051 43.053322 
L 164.777496 46.098723 
L 167.488555 49.5687 
L 169.289818 52.141117 
L 173.759183 59.096658 
L 192.836063 89.077681 
L 192.836063 89.077681 
" clip-path="url(#p88ee129791)" style="fill: none; stroke: #0000ff; stroke-width: 1.5; stroke-linecap: square"/>
   </g>
   <g id="line2d_13">
    <g clip-path="url(#p88ee129791)">
     <use xlink:href="#m603e64ae1b" x="10.7" y="34.92" style="stroke: #000000"/>
    </g>
   </g>
   <g id="line2d_14">
    <path d="M 10.7 7.2 
L 24.382863 10.431584 
L 36.972009 12.730664 
L 47.951742 14.050184 
L 60.759953 14.747996 
L 77.565904 14.766119 
L 91.020675 14.476338 
L 99.14689 14.53269 
L 107.226983 14.977972 
L 112.529494 15.562205 
L 118.201528 16.515643 
L 123.565881 17.797851 
L 128.481589 19.341172 
L 134.314772 21.603356 
L 139.624668 24.129239 
L 141.952407 25.387635 
L 146.717624 28.235263 
L 149.948893 30.366048 
L 153.204443 32.691229 
L 157.395712 36.151184 
L 159.948498 38.497456 
L 163.373233 41.985589 
L 165.967894 44.97482 
L 168.554764 48.271488 
L 171.130281 51.936464 
L 173.664265 56.042011 
L 193.571811 90.22232 
L 193.571811 90.22232 
" clip-path="url(#p88ee129791)" style="fill: none; stroke: #0000ff; stroke-width: 1.5; stroke-linecap: square"/>
   </g>
   <g id="line2d_15">
    <g clip-path="url(#p88ee129791)">
     <use xlink:href="#m603e64ae1b" x="10.7" y="7.2" style="stroke: #000000"/>
    </g>
   </g>
   <g id="patch_4">
    <path d="M 10.7 173.52 
L 10.7 7.2 
" style="fill: none; stroke: #000000; stroke-width: 0.8; stroke-linejoin: miter; stroke-linecap: square"/>
   </g>
   <g id="patch_5">
    <path d="M 210.284 173.52 
L 210.284 7.2 
" style="fill: none; stroke: #000000; stroke-width: 0.8; stroke-linejoin: miter; stroke-linecap: square"/>
   </g>
   <g id="patch_6">
    <path d="M 10.7 173.52 
L 210.284 173.52 
" style="fill: none; stroke: #000000; stroke-width: 0.8; stroke-linejoin: miter; stroke-linecap: square"/>
   </g>
   <g id="patch_7">
    <path d="M 10.7 7.2 
L 210.284 7.2 
" style="fill: none; stroke: #000000; stroke-width: 0.8; stroke-linejoin: miter; stroke-linecap: square"/>
   </g>
   <g id="line2d_16">
    <defs>
     <path id="mc3de5d7ce5" d="M 0 -9 
L -2.020626 -2.781153 
L -8.559509 -2.781153 
L -3.269441 1.062306 
L -5.290067 7.281153 
L -0 3.437694 
L 5.290067 7.281153 
L 3.269441 1.062306 
L 8.559509 -2.781153 
L 2.020626 -2.781153 
z
" style="stroke: #000000; stroke-linejoin: bevel"/>
    </defs>
    <g clip-path="url(#p88ee129791)">
     <use xlink:href="#mc3de5d7ce5" x="193.652" y="90.36" style="stroke: #000000; stroke-linejoin: bevel"/>
    </g>
   </g>
  </g>
 </g>
 <defs>
  <clipPath id="p88ee129791">
   <rect x="10.7" y="7.2" width="199.584" height="166.32"/>
  </clipPath>
 </defs>
</svg>
