<?xml version="1.0" encoding="utf-8" standalone="no"?>
<!DOCTYPE svg PUBLIC "-//W3C//DTD SVG 1.1//EN"
  "http://www.w3.org/Graphics/SVG/1.1/DTD/svg11.dtd">
<svg xmlns:xlink="http://www.w3.org/1999/xlink" width="217.484pt" height="184.22pt" viewBox="0 0 217.484 184.22" xmlns="http://www.w3.org/2000/svg" version="1.1">
 <metadata>
  <rdf:RDF xmlns:dc="http://purl.org/dc/elements/1.1/" xmlns:cc="http://creativecommons.org/ns#" xmlns:rdf="http://www.w3.org/1999/02/22-rdf-syntax-ns#">
   <cc:Work>
    <dc:type rdf:resource="http://purl.org/dc/dcmitype/StillImage"/>
    <dc:date>2023-07-06T11:35:53.689240</dc:date>
    <dc:format>image/svg+xml</dc:format>
    <dc:creator>
     <cc:Agent>
      <dc:title>Matplotlib v3.6.0, https://matplotlib.org/</dc:title>
     </cc:Agent>
    </dc:creator>
   </cc:Work>
  </rdf:RDF>
 </metadata>
 <defs>
  <style type="text/css">*{stroke-linejoin: round; stroke-linecap: butt}</style>
 </defs>
 <g id="figure_1">
  <g id="patch_1">
   <path d="M 0 184.22 
L 217.484 184.22 
L 217.484 0 
L 0 0 
z
" style="fill: #ffffff"/>
  </g>
  <g id="axes_1">
   <g id="patch_2">
    <path d="M 10.7 173.52 
L 210.284 173.52 
L 210.284 7.2 
L 10.7 7.2 
z
" style="fill: #ffffff"/>
   </g>
   <g id="patch_3">
    <path d="M 127.124 106.992 
L 127.124 73.728 
L 93.86 73.728 
L 93.86 106.992 
z
" clip-path="url(#pf6fe88d483)" style="opacity: 0.1; stroke: #000000; stroke-linejoin: miter"/>
   </g>
   <g id="line2d_1">
    <path d="M 127.124 106.992 
L 127.124 73.728 
L 93.86 73.728 
L 93.86 106.992 
L 127.124 106.992 
" clip-path="url(#pf6fe88d483)" style="fill: none; stroke: #000000; stroke-opacity: 0.3; stroke-width: 1.5; stroke-linecap: square"/>
   </g>
   <g id="line2d_2">
    <path d="M 10.7 173.52 
L 26.782141 169.282985 
L 38.154603 166.795717 
L 49.625945 164.815275 
L 59.526544 163.570783 
L 77.710829 161.887871 
L 88.446003 161.159896 
L 94.324149 160.742634 
L 101.302532 160.121849 
L 107.736258 159.300626 
L 112.505585 158.465603 
L 116.43396 157.594836 
L 121.456401 156.200302 
L 125.558288 154.790326 
L 129.704223 153.100679 
L 133.903734 151.120721 
L 138.158225 148.786461 
L 143.545138 145.316593 
L 147.875947 142.193643 
L 152.221108 138.577453 
L 155.47593 135.506954 
L 158.715729 132.052459 
L 172.601474 115.489616 
L 193.551431 90.480056 
L 193.551431 90.480056 
" clip-path="url(#pf6fe88d483)" style="fill: none; stroke: #0000ff; stroke-width: 1.5; stroke-linecap: square"/>
   </g>
   <g id="line2d_3">
    <defs>
     <path id="m90ef11cb0c" d="M 0 3 
C 0.795609 3 1.55874 2.683901 2.12132 2.12132 
C 2.683901 1.55874 3 0.795609 3 0 
C 3 -0.795609 2.683901 -1.55874 2.12132 -2.12132 
C 1.55874 -2.683901 0.795609 -3 0 -3 
C -0.795609 -3 -1.55874 -2.683901 -2.12132 -2.12132 
C -2.683901 -1.55874 -3 -0.795609 -3 0 
C -3 0.795609 -2.683901 1.55874 -2.12132 2.12132 
C -1.55874 2.683901 -0.795609 3 0 3 
z
" style="stroke: #000000"/>
    </defs>
    <g clip-path="url(#pf6fe88d483)">
     <use xlink:href="#m90ef11cb0c" x="10.7" y="173.52" style="stroke: #000000"/>
    </g>
   </g>
   <g id="line2d_4">
    <path d="M 10.7 145.8 
L 17.299357 144.966297 
L 28.896122 143.937506 
L 38.869545 143.598689 
L 46.554209 143.853518 
L 55.425627 144.787311 
L 64.332412 146.320543 
L 86.500049 150.734506 
L 90.448617 151.316471 
L 96.045309 151.984901 
L 101.454089 152.382744 
L 105.6323 152.459045 
L 110.986374 152.220011 
L 115.698461 151.678421 
L 119.649815 150.943025 
L 123.717099 149.915405 
L 126.850388 148.902197 
L 131.134052 147.210692 
L 135.506593 145.131486 
L 139.960829 142.633482 
L 144.507491 139.590913 
L 147.945743 136.996288 
L 151.408162 133.995031 
L 154.876343 130.550667 
L 193.544739 90.471175 
L 193.544739 90.471175 
" clip-path="url(#pf6fe88d483)" style="fill: none; stroke: #0000ff; stroke-width: 1.5; stroke-linecap: square"/>
   </g>
   <g id="line2d_5">
    <g clip-path="url(#pf6fe88d483)">
     <use xlink:href="#m90ef11cb0c" x="10.7" y="145.8" style="stroke: #000000"/>
    </g>
   </g>
   <g id="line2d_6">
    <path d="M 10.7 118.08 
L 19.01535 117.978604 
L 28.981454 118.485345 
L 31.658853 118.723861 
L 38.576327 119.722701 
L 43.907221 121.073512 
L 46.035617 121.753663 
L 50.733733 123.591523 
L 56.019442 126.322445 
L 62.063648 130.152834 
L 66.536139 133.140457 
L 75.637711 138.896694 
L 79.328225 140.905191 
L 83.812628 142.969526 
L 86.820336 144.156805 
L 91.136471 145.664394 
L 96.027288 147.016565 
L 100.923845 147.974459 
L 105.613088 148.514272 
L 110.797908 148.644851 
L 115.446176 148.374195 
L 119.352997 147.853454 
L 122.404938 147.223713 
L 125.576999 146.340181 
L 128.826876 145.209857 
L 132.130989 143.869698 
L 135.504984 142.249468 
L 140.130079 139.569531 
L 143.650646 137.243004 
L 147.21549 134.528733 
L 149.610824 132.467595 
L 160.428056 122.138741 
L 193.539608 90.467504 
L 193.539608 90.467504 
" clip-path="url(#pf6fe88d483)" style="fill: none; stroke: #0000ff; stroke-width: 1.5; stroke-linecap: square"/>
   </g>
   <g id="line2d_7">
    <g clip-path="url(#pf6fe88d483)">
     <use xlink:href="#m90ef11cb0c" x="10.7" y="118.08" style="stroke: #000000"/>
    </g>
   </g>
   <g id="line2d_8">
    <path d="M 10.7 90.36 
L 75.185538 90.36 
L 75.185538 90.36 
" clip-path="url(#pf6fe88d483)" style="fill: none; stroke: #0000ff; stroke-width: 1.5; stroke-linecap: square"/>
   </g>
   <g id="line2d_9">
    <g clip-path="url(#pf6fe88d483)">
     <use xlink:href="#m90ef11cb0c" x="10.7" y="90.36" style="stroke: #000000"/>
    </g>
   </g>
   <g id="line2d_10">
    <path d="M 10.7 62.64 
L 19.01535 62.741396 
L 28.981454 62.234655 
L 31.658853 61.996139 
L 38.576327 60.997299 
L 43.907221 59.646488 
L 46.035617 58.966337 
L 50.733733 57.128477 
L 56.019442 54.397555 
L 62.063648 50.567166 
L 66.536139 47.579543 
L 75.637711 41.823306 
L 79.328225 39.814809 
L 83.812628 37.750474 
L 86.820336 36.563195 
L 91.136471 35.055606 
L 96.027288 33.703435 
L 100.923845 32.745541 
L 105.613088 32.205728 
L 110.797908 32.075149 
L 115.446176 32.345805 
L 119.352997 32.866546 
L 122.404938 33.496287 
L 125.576999 34.379819 
L 128.826876 35.510143 
L 132.130989 36.850302 
L 135.504984 38.470532 
L 140.130079 41.150469 
L 143.650646 43.476996 
L 147.21549 46.191267 
L 149.610824 48.252405 
L 160.428056 58.581259 
L 193.539608 90.252496 
L 193.539608 90.252496 
" clip-path="url(#pf6fe88d483)" style="fill: none; stroke: #0000ff; stroke-width: 1.5; stroke-linecap: square"/>
   </g>
   <g id="line2d_11">
    <g clip-path="url(#pf6fe88d483)">
     <use xlink:href="#m90ef11cb0c" x="10.7" y="62.64" style="stroke: #000000"/>
    </g>
   </g>
   <g id="line2d_12">
    <path d="M 10.7 34.92 
L 17.299357 35.753703 
L 28.896122 36.782494 
L 38.869545 37.121311 
L 46.554209 36.866482 
L 55.425627 35.932689 
L 64.332412 34.399457 
L 86.500049 29.985494 
L 90.448617 29.403529 
L 96.045309 28.735099 
L 101.454089 28.337256 
L 105.6323 28.260955 
L 110.986374 28.499989 
L 115.698461 29.041579 
L 119.649815 29.776975 
L 123.717099 30.804595 
L 126.850388 31.817803 
L 131.134052 33.509308 
L 135.506593 35.588514 
L 139.960829 38.086518 
L 144.507491 41.129087 
L 147.945743 43.723712 
L 151.408162 46.724969 
L 154.876343 50.169333 
L 193.544739 90.248825 
L 193.544739 90.248825 
" clip-path="url(#pf6fe88d483)" style="fill: none; stroke: #0000ff; stroke-width: 1.5; stroke-linecap: square"/>
   </g>
   <g id="line2d_13">
    <g clip-path="url(#pf6fe88d483)">
     <use xlink:href="#m90ef11cb0c" x="10.7" y="34.92" style="stroke: #000000"/>
    </g>
   </g>
   <g id="line2d_14">
    <path d="M 10.7 7.2 
L 26.782141 11.437015 
L 38.154603 13.924283 
L 49.625945 15.904725 
L 59.526544 17.149217 
L 77.710829 18.832129 
L 88.446003 19.560104 
L 94.324149 19.977366 
L 101.302532 20.598151 
L 107.736258 21.419374 
L 112.505585 22.254397 
L 116.43396 23.125164 
L 121.456401 24.519698 
L 125.558288 25.929674 
L 129.704223 27.619321 
L 133.903734 29.599279 
L 138.158225 31.933539 
L 143.545138 35.403407 
L 147.875947 38.526357 
L 152.221108 42.142547 
L 155.47593 45.213046 
L 158.715729 48.667541 
L 172.601474 65.230384 
L 193.551431 90.239944 
L 193.551431 90.239944 
" clip-path="url(#pf6fe88d483)" style="fill: none; stroke: #0000ff; stroke-width: 1.5; stroke-linecap: square"/>
   </g>
   <g id="line2d_15">
    <g clip-path="url(#pf6fe88d483)">
     <use xlink:href="#m90ef11cb0c" x="10.7" y="7.2" style="stroke: #000000"/>
    </g>
   </g>
   <g id="patch_4">
    <path d="M 10.7 173.52 
L 10.7 7.2 
" style="fill: none; stroke: #000000; stroke-width: 0.8; stroke-linejoin: miter; stroke-linecap: square"/>
   </g>
   <g id="patch_5">
    <path d="M 210.284 173.52 
L 210.284 7.2 
" style="fill: none; stroke: #000000; stroke-width: 0.8; stroke-linejoin: miter; stroke-linecap: square"/>
   </g>
   <g id="patch_6">
    <path d="M 10.7 173.52 
L 210.284 173.52 
" style="fill: none; stroke: #000000; stroke-width: 0.8; stroke-linejoin: miter; stroke-linecap: square"/>
   </g>
   <g id="patch_7">
    <path d="M 10.7 7.2 
L 210.284 7.2 
" style="fill: none; stroke: #000000; stroke-width: 0.8; stroke-linejoin: miter; stroke-linecap: square"/>
   </g>
   <g id="line2d_16">
    <defs>
     <path id="mbce75027e9" d="M 0 -9 
L -2.020626 -2.781153 
L -8.559509 -2.781153 
L -3.269441 1.062306 
L -5.290067 7.281153 
L -0 3.437694 
L 5.290067 7.281153 
L 3.269441 1.062306 
L 8.559509 -2.781153 
L 2.020626 -2.781153 
z
" style="stroke: #000000; stroke-linejoin: bevel"/>
    </defs>
    <g clip-path="url(#pf6fe88d483)">
     <use xlink:href="#mbce75027e9" x="193.652" y="90.36" style="stroke: #000000; stroke-linejoin: bevel"/>
    </g>
   </g>
  </g>
 </g>
 <defs>
  <clipPath id="pf6fe88d483">
   <rect x="10.7" y="7.2" width="199.584" height="166.32"/>
  </clipPath>
 </defs>
</svg>
