<?xml version="1.0" encoding="utf-8" standalone="no"?>
<!DOCTYPE svg PUBLIC "-//W3C//DTD SVG 1.1//EN"
  "http://www.w3.org/Graphics/SVG/1.1/DTD/svg11.dtd">
<svg xmlns:xlink="http://www.w3.org/1999/xlink" width="217.484pt" height="184.22pt" viewBox="0 0 217.484 184.22" xmlns="http://www.w3.org/2000/svg" version="1.1">
 <metadata>
  <rdf:RDF xmlns:dc="http://purl.org/dc/elements/1.1/" xmlns:cc="http://creativecommons.org/ns#" xmlns:rdf="http://www.w3.org/1999/02/22-rdf-syntax-ns#">
   <cc:Work>
    <dc:type rdf:resource="http://purl.org/dc/dcmitype/StillImage"/>
    <dc:date>2023-07-06T11:08:54.163845</dc:date>
    <dc:format>image/svg+xml</dc:format>
    <dc:creator>
     <cc:Agent>
      <dc:title>Matplotlib v3.6.0, https://matplotlib.org/</dc:title>
     </cc:Agent>
    </dc:creator>
   </cc:Work>
  </rdf:RDF>
 </metadata>
 <defs>
  <style type="text/css">*{stroke-linejoin: round; stroke-linecap: butt}</style>
 </defs>
 <g id="figure_1">
  <g id="patch_1">
   <path d="M 0 184.22 
L 217.484 184.22 
L 217.484 0 
L 0 0 
z
" style="fill: #ffffff"/>
  </g>
  <g id="axes_1">
   <g id="patch_2">
    <path d="M 10.7 173.52 
L 210.284 173.52 
L 210.284 7.2 
L 10.7 7.2 
z
" style="fill: #ffffff"/>
   </g>
   <g id="patch_3">
    <path d="M 127.124 106.992 
L 127.124 73.728 
L 93.86 73.728 
L 93.86 106.992 
z
" clip-path="url(#p072b4e71a6)" style="opacity: 0.1; stroke: #000000; stroke-linejoin: miter"/>
   </g>
   <g id="line2d_1">
    <path d="M 127.124 106.992 
L 127.124 73.728 
L 93.86 73.728 
L 93.86 106.992 
L 127.124 106.992 
" clip-path="url(#p072b4e71a6)" style="fill: none; stroke: #000000; stroke-opacity: 0.3; stroke-width: 1.5; stroke-linecap: square"/>
   </g>
   <g id="line2d_2">
    <path d="M 10.7 173.52 
L 26.724759 169.070165 
L 39.66656 165.984198 
L 49.456992 164.05747 
L 62.603347 162.011677 
L 80.748889 159.680468 
L 89.020051 158.824997 
L 98.939748 157.739367 
L 108.80084 156.219174 
L 112.059148 155.55296 
L 116.900987 154.352038 
L 121.672737 152.897408 
L 124.791233 151.741863 
L 127.84581 150.42656 
L 132.334628 148.250735 
L 135.260112 146.667997 
L 139.51296 144.059246 
L 142.260418 142.185366 
L 146.253415 139.194206 
L 148.826848 137.086982 
L 152.515018 133.727241 
L 156.004209 130.161042 
L 193.541828 90.476473 
L 193.541828 90.476473 
" clip-path="url(#p072b4e71a6)" style="fill: none; stroke: #0000ff; stroke-width: 1.5; stroke-linecap: square"/>
   </g>
   <g id="line2d_3">
    <defs>
     <path id="mb5cf748415" d="M 0 3 
C 0.795609 3 1.55874 2.683901 2.12132 2.12132 
C 2.683901 1.55874 3 0.795609 3 0 
C 3 -0.795609 2.683901 -1.55874 2.12132 -2.12132 
C 1.55874 -2.683901 0.795609 -3 0 -3 
C -0.795609 -3 -1.55874 -2.683901 -2.12132 -2.12132 
C -2.683901 -1.55874 -3 -0.795609 -3 0 
C -3 0.795609 -2.683901 1.55874 -2.12132 2.12132 
C -1.55874 2.683901 -0.795609 3 0 3 
z
" style="stroke: #000000"/>
    </defs>
    <g clip-path="url(#p072b4e71a6)">
     <use xlink:href="#mb5cf748415" x="10.7" y="173.52" style="stroke: #000000"/>
    </g>
   </g>
   <g id="line2d_4">
    <path d="M 10.7 145.8 
L 17.286269 144.867116 
L 28.85914 143.596967 
L 38.819457 142.983945 
L 47.135101 142.909335 
L 55.442701 143.282534 
L 63.713876 144.137012 
L 71.94229 145.332917 
L 76.878553 146.058392 
L 90.07305 147.767281 
L 98.363536 148.40108 
L 103.3495 148.552683 
L 108.335815 148.416782 
L 111.646959 148.109622 
L 114.945096 147.677531 
L 118.211895 147.051167 
L 123.028723 145.75661 
L 126.171628 144.671037 
L 129.25447 143.42358 
L 132.106418 142.073354 
L 136.169732 139.851961 
L 140.111699 137.382025 
L 143.961872 134.562653 
L 146.487511 132.52303 
L 156.409649 123.668667 
L 193.531226 90.468018 
L 193.531226 90.468018 
" clip-path="url(#p072b4e71a6)" style="fill: none; stroke: #0000ff; stroke-width: 1.5; stroke-linecap: square"/>
   </g>
   <g id="line2d_5">
    <g clip-path="url(#p072b4e71a6)">
     <use xlink:href="#mb5cf748415" x="10.7" y="145.8" style="stroke: #000000"/>
    </g>
   </g>
   <g id="line2d_6">
    <path d="M 10.7 118.08 
L 20.675442 117.807057 
L 30.651172 118.066396 
L 38.931355 118.836341 
L 45.483638 119.98709 
L 51.902026 121.736618 
L 58.130866 124.073003 
L 62.652942 126.181715 
L 72.899626 131.779338 
L 76.800333 133.884045 
L 83.290819 136.986646 
L 88.529596 139.025937 
L 93.397277 140.556246 
L 98.91295 141.868477 
L 102.625476 142.467019 
L 106.610837 142.825852 
L 110.795898 142.88915 
L 115.062088 142.569935 
L 119.28496 141.950362 
L 122.069413 141.32692 
L 124.828811 140.520057 
L 127.554108 139.557225 
L 130.252958 138.428632 
L 132.935748 137.108853 
L 136.933167 134.818812 
L 140.893305 132.141563 
L 146.113692 128.060452 
L 193.5322 90.455008 
L 193.5322 90.455008 
" clip-path="url(#p072b4e71a6)" style="fill: none; stroke: #0000ff; stroke-width: 1.5; stroke-linecap: square"/>
   </g>
   <g id="line2d_7">
    <g clip-path="url(#p072b4e71a6)">
     <use xlink:href="#mb5cf748415" x="10.7" y="118.08" style="stroke: #000000"/>
    </g>
   </g>
   <g id="line2d_8">
    <path d="M 10.7 90.36 
L 85.993196 90.36 
L 85.993196 90.36 
" clip-path="url(#p072b4e71a6)" style="fill: none; stroke: #0000ff; stroke-width: 1.5; stroke-linecap: square"/>
   </g>
   <g id="line2d_9">
    <g clip-path="url(#p072b4e71a6)">
     <use xlink:href="#mb5cf748415" x="10.7" y="90.36" style="stroke: #000000"/>
    </g>
   </g>
   <g id="line2d_10">
    <path d="M 10.7 62.64 
L 20.675442 62.912943 
L 30.651172 62.653604 
L 38.931355 61.883659 
L 45.483638 60.73291 
L 51.902026 58.983382 
L 58.130866 56.646997 
L 62.652942 54.538285 
L 72.899626 48.940662 
L 76.800333 46.835955 
L 83.290819 43.733354 
L 88.529596 41.694063 
L 93.397277 40.163754 
L 98.91295 38.851523 
L 102.625476 38.252981 
L 106.610837 37.894148 
L 110.795898 37.83085 
L 115.062088 38.150065 
L 119.28496 38.769638 
L 122.069413 39.39308 
L 124.828811 40.199943 
L 127.554108 41.162775 
L 130.252958 42.291368 
L 132.935748 43.611147 
L 136.933167 45.901188 
L 140.893305 48.578437 
L 146.113692 52.659548 
L 193.5322 90.264992 
L 193.5322 90.264992 
" clip-path="url(#p072b4e71a6)" style="fill: none; stroke: #0000ff; stroke-width: 1.5; stroke-linecap: square"/>
   </g>
   <g id="line2d_11">
    <g clip-path="url(#p072b4e71a6)">
     <use xlink:href="#mb5cf748415" x="10.7" y="62.64" style="stroke: #000000"/>
    </g>
   </g>
   <g id="line2d_12">
    <path d="M 10.7 34.92 
L 17.286269 35.852884 
L 28.85914 37.123033 
L 38.819457 37.736055 
L 47.135101 37.810665 
L 55.442701 37.437466 
L 63.713876 36.582988 
L 71.94229 35.387083 
L 76.878553 34.661608 
L 90.07305 32.952719 
L 98.363536 32.31892 
L 103.3495 32.167317 
L 108.335815 32.303218 
L 111.646959 32.610378 
L 114.945096 33.042469 
L 118.211895 33.668833 
L 123.028723 34.96339 
L 126.171628 36.048963 
L 129.25447 37.29642 
L 132.106418 38.646646 
L 136.169732 40.868039 
L 140.111699 43.337975 
L 143.961872 46.157347 
L 146.487511 48.19697 
L 156.409649 57.051333 
L 193.531226 90.251982 
L 193.531226 90.251982 
" clip-path="url(#p072b4e71a6)" style="fill: none; stroke: #0000ff; stroke-width: 1.5; stroke-linecap: square"/>
   </g>
   <g id="line2d_13">
    <g clip-path="url(#p072b4e71a6)">
     <use xlink:href="#mb5cf748415" x="10.7" y="34.92" style="stroke: #000000"/>
    </g>
   </g>
   <g id="line2d_14">
    <path d="M 10.7 7.2 
L 26.724759 11.649835 
L 39.66656 14.735802 
L 49.456992 16.66253 
L 62.603347 18.708323 
L 80.748889 21.039532 
L 89.020051 21.895003 
L 98.939748 22.980633 
L 108.80084 24.500826 
L 112.059148 25.16704 
L 116.900987 26.367962 
L 121.672737 27.822592 
L 124.791233 28.978137 
L 127.84581 30.29344 
L 132.334628 32.469265 
L 135.260112 34.052003 
L 139.51296 36.660754 
L 142.260418 38.534634 
L 146.253415 41.525794 
L 148.826848 43.633018 
L 152.515018 46.992759 
L 156.004209 50.558958 
L 193.541828 90.243527 
L 193.541828 90.243527 
" clip-path="url(#p072b4e71a6)" style="fill: none; stroke: #0000ff; stroke-width: 1.5; stroke-linecap: square"/>
   </g>
   <g id="line2d_15">
    <g clip-path="url(#p072b4e71a6)">
     <use xlink:href="#mb5cf748415" x="10.7" y="7.2" style="stroke: #000000"/>
    </g>
   </g>
   <g id="patch_4">
    <path d="M 10.7 173.52 
L 10.7 7.2 
" style="fill: none; stroke: #000000; stroke-width: 0.8; stroke-linejoin: miter; stroke-linecap: square"/>
   </g>
   <g id="patch_5">
    <path d="M 210.284 173.52 
L 210.284 7.2 
" style="fill: none; stroke: #000000; stroke-width: 0.8; stroke-linejoin: miter; stroke-linecap: square"/>
   </g>
   <g id="patch_6">
    <path d="M 10.7 173.52 
L 210.284 173.52 
" style="fill: none; stroke: #000000; stroke-width: 0.8; stroke-linejoin: miter; stroke-linecap: square"/>
   </g>
   <g id="patch_7">
    <path d="M 10.7 7.2 
L 210.284 7.2 
" style="fill: none; stroke: #000000; stroke-width: 0.8; stroke-linejoin: miter; stroke-linecap: square"/>
   </g>
   <g id="line2d_16">
    <defs>
     <path id="m681637f7fa" d="M 0 -9 
L -2.020626 -2.781153 
L -8.559509 -2.781153 
L -3.269441 1.062306 
L -5.290067 7.281153 
L -0 3.437694 
L 5.290067 7.281153 
L 3.269441 1.062306 
L 8.559509 -2.781153 
L 2.020626 -2.781153 
z
" style="stroke: #000000; stroke-linejoin: bevel"/>
    </defs>
    <g clip-path="url(#p072b4e71a6)">
     <use xlink:href="#m681637f7fa" x="193.652" y="90.36" style="stroke: #000000; stroke-linejoin: bevel"/>
    </g>
   </g>
  </g>
 </g>
 <defs>
  <clipPath id="p072b4e71a6">
   <rect x="10.7" y="7.2" width="199.584" height="166.32"/>
  </clipPath>
 </defs>
</svg>
