<?xml version="1.0" encoding="utf-8" standalone="no"?>
<!DOCTYPE svg PUBLIC "-//W3C//DTD SVG 1.1//EN"
  "http://www.w3.org/Graphics/SVG/1.1/DTD/svg11.dtd">
<svg xmlns:xlink="http://www.w3.org/1999/xlink" width="217.484pt" height="184.22pt" viewBox="0 0 217.484 184.22" xmlns="http://www.w3.org/2000/svg" version="1.1">
 <metadata>
  <rdf:RDF xmlns:dc="http://purl.org/dc/elements/1.1/" xmlns:cc="http://creativecommons.org/ns#" xmlns:rdf="http://www.w3.org/1999/02/22-rdf-syntax-ns#">
   <cc:Work>
    <dc:type rdf:resource="http://purl.org/dc/dcmitype/StillImage"/>
    <dc:date>2023-07-06T11:07:02.626103</dc:date>
    <dc:format>image/svg+xml</dc:format>
    <dc:creator>
     <cc:Agent>
      <dc:title>Matplotlib v3.6.0, https://matplotlib.org/</dc:title>
     </cc:Agent>
    </dc:creator>
   </cc:Work>
  </rdf:RDF>
 </metadata>
 <defs>
  <style type="text/css">*{stroke-linejoin: round; stroke-linecap: butt}</style>
 </defs>
 <g id="figure_1">
  <g id="patch_1">
   <path d="M 0 184.22 
L 217.484 184.22 
L 217.484 0 
L 0 0 
z
" style="fill: #ffffff"/>
  </g>
  <g id="axes_1">
   <g id="patch_2">
    <path d="M 10.7 173.52 
L 210.284 173.52 
L 210.284 7.2 
L 10.7 7.2 
z
" style="fill: #ffffff"/>
   </g>
   <g id="patch_3">
    <path d="M 127.124 106.992 
L 127.124 73.728 
L 93.86 73.728 
L 93.86 106.992 
z
" clip-path="url(#p33bc4aa405)" style="opacity: 0.1; stroke: #000000; stroke-linejoin: miter"/>
   </g>
   <g id="line2d_1">
    <path d="M 127.124 106.992 
L 127.124 73.728 
L 93.86 73.728 
L 93.86 106.992 
L 127.124 106.992 
" clip-path="url(#p33bc4aa405)" style="fill: none; stroke: #000000; stroke-opacity: 0.3; stroke-width: 1.5; stroke-linecap: square"/>
   </g>
   <g id="line2d_2">
    <path d="M 10.7 173.52 
L 23.778688 171.073714 
L 38.627153 169.193989 
L 51.891282 168.170123 
L 58.53701 167.874186 
L 76.803413 166.877292 
L 83.451736 166.675136 
L 91.759656 166.319646 
L 100.04992 165.682828 
L 108.295086 164.619017 
L 113.203625 163.730515 
L 118.070908 162.632643 
L 122.860934 161.235803 
L 127.554549 159.542984 
L 132.13045 157.553797 
L 138.025217 154.470729 
L 143.679205 150.965863 
L 147.721563 148.041524 
L 151.660555 144.979014 
L 155.436482 141.718646 
L 159.01455 138.24127 
L 162.375994 134.554547 
L 165.498797 130.663575 
L 169.363814 125.249239 
L 193.563904 90.486547 
L 193.563904 90.486547 
" clip-path="url(#p33bc4aa405)" style="fill: none; stroke: #0000ff; stroke-width: 1.5; stroke-linecap: square"/>
   </g>
   <g id="line2d_3">
    <defs>
     <path id="m9b42cc0146" d="M 0 3 
C 0.795609 3 1.55874 2.683901 2.12132 2.12132 
C 2.683901 1.55874 3 0.795609 3 0 
C 3 -0.795609 2.683901 -1.55874 2.12132 -2.12132 
C 1.55874 -2.683901 0.795609 -3 0 -3 
C -0.795609 -3 -1.55874 -2.683901 -2.12132 -2.12132 
C -2.683901 -1.55874 -3 -0.795609 -3 0 
C -3 0.795609 -2.683901 1.55874 -2.12132 2.12132 
C -1.55874 2.683901 -0.795609 3 0 3 
z
" style="stroke: #000000"/>
    </defs>
    <g clip-path="url(#p33bc4aa405)">
     <use xlink:href="#m9b42cc0146" x="10.7" y="173.52" style="stroke: #000000"/>
    </g>
   </g>
   <g id="line2d_4">
    <path d="M 10.7 145.8 
L 17.34223 145.464793 
L 27.321382 145.44488 
L 38.93654 146.240236 
L 47.170634 147.40448 
L 58.549463 149.863348 
L 65.013413 151.43255 
L 69.847846 152.662701 
L 77.988378 154.360849 
L 86.171969 155.837302 
L 92.768604 156.698724 
L 99.402191 157.20313 
L 106.053096 157.2078 
L 111.035035 156.932882 
L 115.985122 156.307104 
L 120.877571 155.328032 
L 124.088691 154.45996 
L 128.805707 152.833482 
L 133.391168 150.866663 
L 137.825076 148.578586 
L 142.085578 145.981852 
L 146.22635 143.198278 
L 151.447904 139.076424 
L 155.122228 135.700914 
L 157.45029 133.325527 
L 159.688589 130.865267 
L 193.550624 90.480902 
L 193.550624 90.480902 
" clip-path="url(#p33bc4aa405)" style="fill: none; stroke: #0000ff; stroke-width: 1.5; stroke-linecap: square"/>
   </g>
   <g id="line2d_5">
    <g clip-path="url(#p33bc4aa405)">
     <use xlink:href="#m9b42cc0146" x="10.7" y="145.8" style="stroke: #000000"/>
    </g>
   </g>
   <g id="line2d_6">
    <path d="M 10.7 118.08 
L 19.004608 118.51441 
L 28.886791 119.901664 
L 36.961397 121.89051 
L 44.762765 124.769808 
L 50.716157 127.739068 
L 57.773354 132.133798 
L 61.946849 134.865848 
L 68.908864 139.413313 
L 74.700057 142.686901 
L 77.646987 144.226336 
L 82.186753 146.296231 
L 88.458522 148.514722 
L 94.881127 150.249026 
L 99.785518 151.166807 
L 104.746482 151.699704 
L 109.733919 151.84182 
L 114.715943 151.571326 
L 119.660046 150.900988 
L 122.915388 150.217192 
L 127.685317 148.758711 
L 130.799445 147.589744 
L 133.839134 146.239323 
L 138.236316 143.882186 
L 141.080162 142.158998 
L 145.200974 139.346886 
L 147.870682 137.362639 
L 151.662805 134.120095 
L 155.190839 130.592723 
L 193.546507 90.470352 
L 193.546507 90.470352 
" clip-path="url(#p33bc4aa405)" style="fill: none; stroke: #0000ff; stroke-width: 1.5; stroke-linecap: square"/>
   </g>
   <g id="line2d_7">
    <g clip-path="url(#p33bc4aa405)">
     <use xlink:href="#m9b42cc0146" x="10.7" y="118.08" style="stroke: #000000"/>
    </g>
   </g>
   <g id="line2d_8">
    <path d="M 10.7 90.36 
L 85.993196 90.36 
L 85.993196 90.36 
" clip-path="url(#p33bc4aa405)" style="fill: none; stroke: #0000ff; stroke-width: 1.5; stroke-linecap: square"/>
   </g>
   <g id="line2d_9">
    <g clip-path="url(#p33bc4aa405)">
     <use xlink:href="#m9b42cc0146" x="10.7" y="90.36" style="stroke: #000000"/>
    </g>
   </g>
   <g id="line2d_10">
    <path d="M 10.7 62.64 
L 19.004608 62.20559 
L 28.886791 60.818336 
L 36.961397 58.82949 
L 44.762765 55.950192 
L 50.716157 52.980932 
L 57.773354 48.586202 
L 61.946849 45.854152 
L 68.908864 41.306687 
L 74.700057 38.033099 
L 77.646987 36.493664 
L 82.186753 34.423769 
L 88.458522 32.205278 
L 94.881127 30.470974 
L 99.785518 29.553193 
L 104.746482 29.020296 
L 109.733919 28.87818 
L 114.715943 29.148674 
L 119.660046 29.819012 
L 122.915388 30.502808 
L 127.685317 31.961289 
L 130.799445 33.130256 
L 133.839134 34.480677 
L 138.236316 36.837814 
L 141.080162 38.561002 
L 145.200974 41.373114 
L 147.870682 43.357361 
L 151.662805 46.599905 
L 155.190839 50.127277 
L 193.546507 90.249648 
L 193.546507 90.249648 
" clip-path="url(#p33bc4aa405)" style="fill: none; stroke: #0000ff; stroke-width: 1.5; stroke-linecap: square"/>
   </g>
   <g id="line2d_11">
    <g clip-path="url(#p33bc4aa405)">
     <use xlink:href="#m9b42cc0146" x="10.7" y="62.64" style="stroke: #000000"/>
    </g>
   </g>
   <g id="line2d_12">
    <path d="M 10.7 34.92 
L 17.34223 35.255207 
L 27.321382 35.27512 
L 38.93654 34.479764 
L 47.170634 33.31552 
L 58.549463 30.856652 
L 65.013413 29.28745 
L 69.847846 28.057299 
L 77.988378 26.359151 
L 86.171969 24.882698 
L 92.768604 24.021276 
L 99.402191 23.51687 
L 106.053096 23.5122 
L 111.035035 23.787118 
L 115.985122 24.412896 
L 120.877571 25.391968 
L 124.088691 26.26004 
L 128.805707 27.886518 
L 133.391168 29.853337 
L 137.825076 32.141414 
L 142.085578 34.738148 
L 146.22635 37.521722 
L 151.447904 41.643576 
L 155.122228 45.019086 
L 157.45029 47.394473 
L 159.688589 49.854733 
L 193.550624 90.239098 
L 193.550624 90.239098 
" clip-path="url(#p33bc4aa405)" style="fill: none; stroke: #0000ff; stroke-width: 1.5; stroke-linecap: square"/>
   </g>
   <g id="line2d_13">
    <g clip-path="url(#p33bc4aa405)">
     <use xlink:href="#m9b42cc0146" x="10.7" y="34.92" style="stroke: #000000"/>
    </g>
   </g>
   <g id="line2d_14">
    <path d="M 10.7 7.2 
L 23.778688 9.646286 
L 38.627153 11.526011 
L 51.891282 12.549877 
L 58.53701 12.845814 
L 76.803413 13.842708 
L 83.451736 14.044864 
L 91.759656 14.400354 
L 100.04992 15.037172 
L 108.295086 16.100983 
L 113.203625 16.989485 
L 118.070908 18.087357 
L 122.860934 19.484197 
L 127.554549 21.177016 
L 132.13045 23.166203 
L 138.025217 26.249271 
L 143.679205 29.754137 
L 147.721563 32.678476 
L 151.660555 35.740986 
L 155.436482 39.001354 
L 159.01455 42.47873 
L 162.375994 46.165453 
L 165.498797 50.056425 
L 169.363814 55.470761 
L 193.563904 90.233453 
L 193.563904 90.233453 
" clip-path="url(#p33bc4aa405)" style="fill: none; stroke: #0000ff; stroke-width: 1.5; stroke-linecap: square"/>
   </g>
   <g id="line2d_15">
    <g clip-path="url(#p33bc4aa405)">
     <use xlink:href="#m9b42cc0146" x="10.7" y="7.2" style="stroke: #000000"/>
    </g>
   </g>
   <g id="patch_4">
    <path d="M 10.7 173.52 
L 10.7 7.2 
" style="fill: none; stroke: #000000; stroke-width: 0.8; stroke-linejoin: miter; stroke-linecap: square"/>
   </g>
   <g id="patch_5">
    <path d="M 210.284 173.52 
L 210.284 7.2 
" style="fill: none; stroke: #000000; stroke-width: 0.8; stroke-linejoin: miter; stroke-linecap: square"/>
   </g>
   <g id="patch_6">
    <path d="M 10.7 173.52 
L 210.284 173.52 
" style="fill: none; stroke: #000000; stroke-width: 0.8; stroke-linejoin: miter; stroke-linecap: square"/>
   </g>
   <g id="patch_7">
    <path d="M 10.7 7.2 
L 210.284 7.2 
" style="fill: none; stroke: #000000; stroke-width: 0.8; stroke-linejoin: miter; stroke-linecap: square"/>
   </g>
   <g id="line2d_16">
    <defs>
     <path id="m69c9f3916e" d="M 0 -9 
L -2.020626 -2.781153 
L -8.559509 -2.781153 
L -3.269441 1.062306 
L -5.290067 7.281153 
L -0 3.437694 
L 5.290067 7.281153 
L 3.269441 1.062306 
L 8.559509 -2.781153 
L 2.020626 -2.781153 
z
" style="stroke: #000000; stroke-linejoin: bevel"/>
    </defs>
    <g clip-path="url(#p33bc4aa405)">
     <use xlink:href="#m69c9f3916e" x="193.652" y="90.36" style="stroke: #000000; stroke-linejoin: bevel"/>
    </g>
   </g>
  </g>
 </g>
 <defs>
  <clipPath id="p33bc4aa405">
   <rect x="10.7" y="7.2" width="199.584" height="166.32"/>
  </clipPath>
 </defs>
</svg>
