<?xml version="1.0" encoding="utf-8" standalone="no"?>
<!DOCTYPE svg PUBLIC "-//W3C//DTD SVG 1.1//EN"
  "http://www.w3.org/Graphics/SVG/1.1/DTD/svg11.dtd">
<svg xmlns:xlink="http://www.w3.org/1999/xlink" width="217.484pt" height="184.22pt" viewBox="0 0 217.484 184.22" xmlns="http://www.w3.org/2000/svg" version="1.1">
 <metadata>
  <rdf:RDF xmlns:dc="http://purl.org/dc/elements/1.1/" xmlns:cc="http://creativecommons.org/ns#" xmlns:rdf="http://www.w3.org/1999/02/22-rdf-syntax-ns#">
   <cc:Work>
    <dc:type rdf:resource="http://purl.org/dc/dcmitype/StillImage"/>
    <dc:date>2023-07-06T11:09:08.331747</dc:date>
    <dc:format>image/svg+xml</dc:format>
    <dc:creator>
     <cc:Agent>
      <dc:title>Matplotlib v3.6.0, https://matplotlib.org/</dc:title>
     </cc:Agent>
    </dc:creator>
   </cc:Work>
  </rdf:RDF>
 </metadata>
 <defs>
  <style type="text/css">*{stroke-linejoin: round; stroke-linecap: butt}</style>
 </defs>
 <g id="figure_1">
  <g id="patch_1">
   <path d="M 0 184.22 
L 217.484 184.22 
L 217.484 0 
L 0 0 
z
" style="fill: #ffffff"/>
  </g>
  <g id="axes_1">
   <g id="patch_2">
    <path d="M 10.7 173.52 
L 210.284 173.52 
L 210.284 7.2 
L 10.7 7.2 
z
" style="fill: #ffffff"/>
   </g>
   <g id="patch_3">
    <path d="M 127.124 106.992 
L 127.124 73.728 
L 93.86 73.728 
L 93.86 106.992 
z
" clip-path="url(#p1f6584104e)" style="opacity: 0.1; stroke: #000000; stroke-linejoin: miter"/>
   </g>
   <g id="line2d_1">
    <path d="M 127.124 106.992 
L 127.124 73.728 
L 93.86 73.728 
L 93.86 106.992 
L 127.124 106.992 
" clip-path="url(#p1f6584104e)" style="fill: none; stroke: #000000; stroke-opacity: 0.3; stroke-width: 1.5; stroke-linecap: square"/>
   </g>
   <g id="line2d_2">
    <path d="M 10.7 173.52 
L 19.014824 173.43843 
L 24.003402 173.539222 
L 30.615493 174.265875 
L 38.901824 174.967543 
L 50.385882 176.864357 
L 76.818966 179.868719 
L 78.464429 180.110975 
L 83.438778 180.484938 
L 88.40459 180.970969 
L 95.054923 181.103819 
L 100.043431 181.203071 
L 106.689417 180.907455 
L 110.001265 180.60911 
L 116.593837 179.717647 
L 123.094634 178.304617 
L 126.305158 177.440463 
L 132.638973 175.405773 
L 135.747012 174.224925 
L 141.840829 171.556433 
L 147.679183 168.367471 
L 150.55175 166.69026 
L 156.02021 162.901955 
L 160.013383 159.910619 
L 163.901776 156.784259 
L 167.660424 153.503335 
L 171.286437 150.076159 
L 174.642598 146.384284 
L 177.835942 142.551061 
L 179.874489 139.922604 
L 182.64816 135.775278 
L 185.259672 131.524025 
L 187.693055 127.16841 
L 189.763794 122.629153 
L 191.631562 118.002746 
L 193.266939 113.289328 
L 194.602895 108.482341 
L 195.311106 105.240325 
L 195.946275 101.214376 
L 196.399634 96.632811 
L 196.449148 92.907999 
L 196.223735 90.708736 
L 195.892249 90.340522 
L 193.801723 90.359241 
L 193.801723 90.359241 
" clip-path="url(#p1f6584104e)" style="fill: none; stroke: #0000ff; stroke-width: 1.5; stroke-linecap: square"/>
   </g>
   <g id="line2d_3">
    <defs>
     <path id="m781fe79d62" d="M 0 3 
C 0.795609 3 1.55874 2.683901 2.12132 2.12132 
C 2.683901 1.55874 3 0.795609 3 0 
C 3 -0.795609 2.683901 -1.55874 2.12132 -2.12132 
C 1.55874 -2.683901 0.795609 -3 0 -3 
C -0.795609 -3 -1.55874 -2.683901 -2.12132 -2.12132 
C -2.683901 -1.55874 -3 -0.795609 -3 0 
C -3 0.795609 -2.683901 1.55874 -2.12132 2.12132 
C -1.55874 2.683901 -0.795609 3 0 3 
z
" style="stroke: #000000"/>
    </defs>
    <g clip-path="url(#p1f6584104e)">
     <use xlink:href="#m781fe79d62" x="10.7" y="173.52" style="stroke: #000000"/>
    </g>
   </g>
   <g id="line2d_4">
    <path d="M 10.7 145.8 
L 15.640763 146.496251 
L 23.660429 148.695769 
L 26.857361 149.614759 
L 37.56399 154.187781 
L 44.84788 158.2002 
L 47.888701 159.548647 
L 55.255858 163.405787 
L 58.231042 164.893455 
L 66.015165 167.819036 
L 69.155736 168.91521 
L 72.357516 169.810507 
L 80.317494 172.214162 
L 90.051883 174.407871 
L 98.300841 175.457475 
L 106.60912 175.810757 
L 114.914918 175.402265 
L 123.13923 174.17195 
L 129.592167 172.553833 
L 137.425036 169.761841 
L 140.482596 168.455727 
L 144.962573 166.259678 
L 147.875887 164.657153 
L 152.113431 162.023681 
L 157.617263 158.286863 
L 160.292274 156.310234 
L 164.189033 153.194324 
L 166.68781 150.999797 
L 170.225457 147.48145 
L 173.631522 143.835598 
L 176.76007 139.949583 
L 179.700036 135.918435 
L 181.530287 133.141796 
L 184.079724 128.852983 
L 186.447535 124.461307 
L 188.494213 119.911071 
L 190.290386 115.25633 
L 191.375095 112.111847 
L 192.656857 107.290049 
L 193.58875 102.810307 
L 194.15443 98.558673 
L 194.534796 93.179471 
L 194.517064 90.45729 
L 194.449577 90.303232 
L 194.390945 90.357599 
L 193.804142 90.359281 
L 193.804142 90.359281 
" clip-path="url(#p1f6584104e)" style="fill: none; stroke: #0000ff; stroke-width: 1.5; stroke-linecap: square"/>
   </g>
   <g id="line2d_5">
    <g clip-path="url(#p1f6584104e)">
     <use xlink:href="#m781fe79d62" x="10.7" y="145.8" style="stroke: #000000"/>
    </g>
   </g>
   <g id="line2d_6">
    <path d="M 10.7 118.08 
L 15.435807 119.650392 
L 18.561799 120.787436 
L 24.269384 124.200475 
L 25.724068 125.006782 
L 32.093556 130.352983 
L 37.069046 134.769104 
L 39.534054 137.002637 
L 42.499897 141.014812 
L 43.522837 142.326234 
L 54.170187 152.828552 
L 63.414861 159.886826 
L 67.721322 162.406062 
L 72.135285 164.731977 
L 81.400039 168.437018 
L 89.36074 170.84005 
L 99.169166 172.675735 
L 107.457846 173.263253 
L 114.110008 173.204553 
L 120.722363 172.473262 
L 128.853665 170.731521 
L 135.190032 168.704707 
L 138.289749 167.502443 
L 142.837684 165.450753 
L 145.799951 163.940727 
L 148.677564 162.272802 
L 154.307966 158.729467 
L 158.382729 155.850227 
L 162.350503 152.825273 
L 166.052985 149.48081 
L 169.632782 146.005367 
L 171.889273 143.563349 
L 175.07509 139.72352 
L 178.083001 135.744003 
L 180.843595 131.587936 
L 183.410062 127.310463 
L 185.717876 122.887416 
L 187.121326 119.871654 
L 188.929107 115.221816 
L 190.515297 110.491286 
L 191.74092 105.655587 
L 192.750547 100.449429 
L 193.163176 96.99029 
L 193.518115 92.442309 
L 193.642388 90.509489 
L 193.642388 90.509489 
" clip-path="url(#p1f6584104e)" style="fill: none; stroke: #0000ff; stroke-width: 1.5; stroke-linecap: square"/>
   </g>
   <g id="line2d_7">
    <g clip-path="url(#p1f6584104e)">
     <use xlink:href="#m781fe79d62" x="10.7" y="118.08" style="stroke: #000000"/>
    </g>
   </g>
   <g id="line2d_8">
    <path d="M 10.7 90.36 
L 85.993196 90.36 
L 85.993196 90.36 
" clip-path="url(#p1f6584104e)" style="fill: none; stroke: #0000ff; stroke-width: 1.5; stroke-linecap: square"/>
   </g>
   <g id="line2d_9">
    <g clip-path="url(#p1f6584104e)">
     <use xlink:href="#m781fe79d62" x="10.7" y="90.36" style="stroke: #000000"/>
    </g>
   </g>
   <g id="line2d_10">
    <path d="M 10.7 62.64 
L 15.435807 61.069608 
L 18.561799 59.932564 
L 24.269384 56.519525 
L 25.724068 55.713218 
L 32.093556 50.367017 
L 37.069046 45.950896 
L 39.534054 43.717363 
L 42.499897 39.705188 
L 43.522837 38.393766 
L 54.170187 27.891448 
L 63.414861 20.833174 
L 67.721322 18.313938 
L 72.135285 15.988023 
L 81.400039 12.282982 
L 89.36074 9.87995 
L 99.169166 8.044265 
L 107.457846 7.456747 
L 114.110008 7.515447 
L 120.722363 8.246738 
L 128.853665 9.988479 
L 135.190032 12.015293 
L 138.289749 13.217557 
L 142.837684 15.269247 
L 145.799951 16.779273 
L 148.677564 18.447198 
L 154.307966 21.990533 
L 158.382729 24.869773 
L 162.350503 27.894727 
L 166.052985 31.23919 
L 169.632782 34.714633 
L 171.889273 37.156651 
L 175.07509 40.99648 
L 178.083001 44.975997 
L 180.843595 49.132064 
L 183.410062 53.409537 
L 185.717876 57.832584 
L 187.121326 60.848346 
L 188.929107 65.498184 
L 190.515297 70.228714 
L 191.74092 75.064413 
L 192.750547 80.270571 
L 193.163176 83.72971 
L 193.518115 88.277691 
L 193.642388 90.210511 
L 193.642388 90.210511 
" clip-path="url(#p1f6584104e)" style="fill: none; stroke: #0000ff; stroke-width: 1.5; stroke-linecap: square"/>
   </g>
   <g id="line2d_11">
    <g clip-path="url(#p1f6584104e)">
     <use xlink:href="#m781fe79d62" x="10.7" y="62.64" style="stroke: #000000"/>
    </g>
   </g>
   <g id="line2d_12">
    <path d="M 10.7 34.92 
L 15.640763 34.223749 
L 23.660429 32.024231 
L 26.857361 31.105241 
L 37.56399 26.532219 
L 44.84788 22.5198 
L 47.888701 21.171353 
L 55.255858 17.314213 
L 58.231042 15.826545 
L 66.015165 12.900964 
L 69.155736 11.80479 
L 72.357516 10.909493 
L 80.317494 8.505838 
L 90.051883 6.312129 
L 98.300841 5.262525 
L 106.60912 4.909243 
L 114.914918 5.317735 
L 123.13923 6.54805 
L 129.592167 8.166167 
L 137.425036 10.958159 
L 140.482596 12.264273 
L 144.962573 14.460322 
L 147.875887 16.062847 
L 152.113431 18.696319 
L 157.617263 22.433137 
L 160.292274 24.409766 
L 164.189033 27.525676 
L 166.68781 29.720203 
L 170.225457 33.23855 
L 173.631522 36.884402 
L 176.76007 40.770417 
L 179.700036 44.801565 
L 181.530287 47.578204 
L 184.079724 51.867017 
L 186.447535 56.258693 
L 188.494213 60.808929 
L 190.290386 65.46367 
L 191.375095 68.608153 
L 192.656857 73.429951 
L 193.58875 77.909693 
L 194.15443 82.161327 
L 194.534796 87.540529 
L 194.517064 90.26271 
L 194.449577 90.416768 
L 194.390945 90.362401 
L 193.804142 90.360719 
L 193.804142 90.360719 
" clip-path="url(#p1f6584104e)" style="fill: none; stroke: #0000ff; stroke-width: 1.5; stroke-linecap: square"/>
   </g>
   <g id="line2d_13">
    <g clip-path="url(#p1f6584104e)">
     <use xlink:href="#m781fe79d62" x="10.7" y="34.92" style="stroke: #000000"/>
    </g>
   </g>
   <g id="line2d_14">
    <path d="M 10.7 7.2 
L 19.014824 7.28157 
L 24.003402 7.180778 
L 30.615493 6.454125 
L 38.901824 5.752457 
L 50.385882 3.855643 
L 76.818966 0.851281 
L 78.464429 0.609025 
L 83.438778 0.235062 
L 88.40459 -0.250969 
L 95.054923 -0.383819 
L 100.043431 -0.483071 
L 106.689417 -0.187455 
L 110.001265 0.11089 
L 116.593837 1.002353 
L 123.094634 2.415383 
L 126.305158 3.279537 
L 132.638973 5.314227 
L 135.747012 6.495075 
L 141.840829 9.163567 
L 147.679183 12.352529 
L 150.55175 14.02974 
L 156.02021 17.818045 
L 160.013383 20.809381 
L 163.901776 23.935741 
L 167.660424 27.216665 
L 171.286437 30.643841 
L 174.642598 34.335716 
L 177.835942 38.168939 
L 179.874489 40.797396 
L 182.64816 44.944722 
L 185.259672 49.195975 
L 187.693055 53.55159 
L 189.763794 58.090847 
L 191.631562 62.717254 
L 193.266939 67.430672 
L 194.602895 72.237659 
L 195.311106 75.479675 
L 195.946275 79.505624 
L 196.399634 84.087189 
L 196.449148 87.812001 
L 196.223735 90.011264 
L 195.892249 90.379478 
L 193.801723 90.360759 
L 193.801723 90.360759 
" clip-path="url(#p1f6584104e)" style="fill: none; stroke: #0000ff; stroke-width: 1.5; stroke-linecap: square"/>
   </g>
   <g id="line2d_15">
    <g clip-path="url(#p1f6584104e)">
     <use xlink:href="#m781fe79d62" x="10.7" y="7.2" style="stroke: #000000"/>
    </g>
   </g>
   <g id="patch_4">
    <path d="M 10.7 173.52 
L 10.7 7.2 
" style="fill: none; stroke: #000000; stroke-width: 0.8; stroke-linejoin: miter; stroke-linecap: square"/>
   </g>
   <g id="patch_5">
    <path d="M 210.284 173.52 
L 210.284 7.2 
" style="fill: none; stroke: #000000; stroke-width: 0.8; stroke-linejoin: miter; stroke-linecap: square"/>
   </g>
   <g id="patch_6">
    <path d="M 10.7 173.52 
L 210.284 173.52 
" style="fill: none; stroke: #000000; stroke-width: 0.8; stroke-linejoin: miter; stroke-linecap: square"/>
   </g>
   <g id="patch_7">
    <path d="M 10.7 7.2 
L 210.284 7.2 
" style="fill: none; stroke: #000000; stroke-width: 0.8; stroke-linejoin: miter; stroke-linecap: square"/>
   </g>
   <g id="line2d_16">
    <defs>
     <path id="mf9d5db5491" d="M 0 -9 
L -2.020626 -2.781153 
L -8.559509 -2.781153 
L -3.269441 1.062306 
L -5.290067 7.281153 
L -0 3.437694 
L 5.290067 7.281153 
L 3.269441 1.062306 
L 8.559509 -2.781153 
L 2.020626 -2.781153 
z
" style="stroke: #000000; stroke-linejoin: bevel"/>
    </defs>
    <g clip-path="url(#p1f6584104e)">
     <use xlink:href="#mf9d5db5491" x="193.652" y="90.36" style="stroke: #000000; stroke-linejoin: bevel"/>
    </g>
   </g>
  </g>
 </g>
 <defs>
  <clipPath id="p1f6584104e">
   <rect x="10.7" y="7.2" width="199.584" height="166.32"/>
  </clipPath>
 </defs>
</svg>
